<svg xmlns="http://www.w3.org/2000/svg" viewBox="6 6 311 429"><g transform="translate(0,442) scale(0.1,-0.1)" fill="#FFFFFF"><path d="M1415 4345 c-359 -51 -659 -205 -913 -469 -179 -186 -309 -409 -380
-651 -96 -324 -79 -704 47 -1050 12 -33 29 -80 38 -105 16 -48 156 -338 195
-405 169 -290 365 -585 389 -585 5 0 9 387 9 944 l0 944 68 54 c37 30 99 79
137 108 39 30 137 106 219 170 321 248 390 300 401 300 6 0 29 -15 51 -33 38
-32 140 -111 299 -231 44 -34 82 -64 85 -67 6 -7 265 -209 332 -259 l47 -35 1
-416 0 -416 -85 -82 c-230 -221 -509 -340 -910 -389 l-60 -7 -3 -669 -2 -668
62 -72 c35 -39 79 -89 100 -111 20 -22 46 -51 57 -65 l21 -25 36 40 c21 22 53
58 73 80 53 59 260 302 311 365 25 30 47 57 51 60 15 13 325 417 384 500 303
429 520 825 617 1125 62 193 88 357 88 556 0 272 -42 456 -155 690 -67 136
-108 200 -216 331 -190 230 -433 392 -734 489 -198 64 -444 84 -660 54z"/></g><g transform="translate(0,442) scale(0.1,-0.1)" fill="#FDD33B"><path d="M1415 4345 c-359 -51 -659 -205 -913 -469 -179 -186 -309 -409 -380
-651 -96 -324 -79 -704 47 -1050 12 -33 29 -80 38 -105 16 -48 156 -338 195
-405 169 -290 365 -585 389 -585 5 0 9 387 9 944 l0 944 68 54 c37 30 99 79
137 108 39 30 137 106 219 170 321 248 390 300 401 300 6 0 29 -15 51 -33 38
-32 140 -111 299 -231 44 -34 82 -64 85 -67 6 -7 265 -209 332 -259 l47 -35 1
-416 0 -416 -85 -82 c-230 -221 -509 -340 -910 -389 l-60 -7 -3 -669 -2 -668
62 -72 c35 -39 79 -89 100 -111 20 -22 46 -51 57 -65 l21 -25 36 40 c21 22 53
58 73 80 53 59 260 302 311 365 25 30 47 57 51 60 15 13 325 417 384 500 303
429 520 825 617 1125 62 193 88 357 88 556 0 272 -42 456 -155 690 -67 136
-108 200 -216 331 -190 230 -433 392 -734 489 -198 64 -444 84 -660 54z"/></g><rect x="141" y="156" width="16" height="18" rx="2" fill="#2F2F2E"/><rect x="166" y="156" width="16" height="18" rx="2" fill="#2F2F2E"/><rect x="141" y="183" width="16" height="18" rx="2" fill="#2F2F2E"/><rect x="166" y="183" width="16" height="18" rx="2" fill="#2F2F2E"/></svg>