<svg xmlns="http://www.w3.org/2000/svg" viewBox="-19.18 -149.68 744.56 283.36"><g transform="translate(-3.427,-133.898) scale(0.5711)"><g transform="translate(0.000000,442.000000) scale(0.100000,-0.100000)" fill="#FFFFFF"><path d="M1415 4345 c-359 -51 -659 -205 -913 -469 -179 -186 -309 -409 -380
-651 -96 -324 -79 -704 47 -1050 12 -33 29 -80 38 -105 16 -48 156 -338 195
-405 169 -290 365 -585 389 -585 5 0 9 387 9 944 l0 944 68 54 c37 30 99 79
137 108 39 30 137 106 219 170 321 248 390 300 401 300 6 0 29 -15 51 -33 38
-32 140 -111 299 -231 44 -34 82 -64 85 -67 6 -7 265 -209 332 -259 l47 -35 1
-416 0 -416 -85 -82 c-230 -221 -509 -340 -910 -389 l-60 -7 -3 -669 -2 -668
62 -72 c35 -39 79 -89 100 -111 20 -22 46 -51 57 -65 l21 -25 36 40 c21 22 53
58 73 80 53 59 260 302 311 365 25 30 47 57 51 60 15 13 325 417 384 500 303
429 520 825 617 1125 62 193 88 357 88 556 0 272 -42 456 -155 690 -67 136
-108 200 -216 331 -190 230 -433 392 -734 489 -198 64 -444 84 -660 54z"/></g><g transform="translate(0.000000,442.000000) scale(0.100000,-0.100000)" fill="#FDD33B"><path d="M1415 4345 c-359 -51 -659 -205 -913 -469 -179 -186 -309 -409 -380
-651 -96 -324 -79 -704 47 -1050 12 -33 29 -80 38 -105 16 -48 156 -338 195
-405 169 -290 365 -585 389 -585 5 0 9 387 9 944 l0 944 68 54 c37 30 99 79
137 108 39 30 137 106 219 170 321 248 390 300 401 300 6 0 29 -15 51 -33 38
-32 140 -111 299 -231 44 -34 82 -64 85 -67 6 -7 265 -209 332 -259 l47 -35 1
-416 0 -416 -85 -82 c-230 -221 -509 -340 -910 -389 l-60 -7 -3 -669 -2 -668
62 -72 c35 -39 79 -89 100 -111 20 -22 46 -51 57 -65 l21 -25 36 40 c21 22 53
58 73 80 53 59 260 302 311 365 25 30 47 57 51 60 15 13 325 417 384 500 303
429 520 825 617 1125 62 193 88 357 88 556 0 272 -42 456 -155 690 -67 136
-108 200 -216 331 -190 230 -433 392 -734 489 -198 64 -444 84 -660 54z"/></g><rect x="141" y="156" width="16" height="18" rx="2" fill="#2F2F2E"/><rect x="166" y="156" width="16" height="18" rx="2" fill="#2F2F2E"/><rect x="141" y="183" width="16" height="18" rx="2" fill="#2F2F2E"/><rect x="166" y="183" width="16" height="18" rx="2" fill="#2F2F2E"/></g><g transform="translate(218.16,0.00) scale(0.13695,-0.13695)"><path transform="translate(0.0,0)" d="M326 268H209V0H69V698H326Q407 698 464.0 670.0Q521 642 549.5 593.0Q578 544 578 482Q578 426 551.5 377.0Q525 328 468.5 298.0Q412 268 326 268ZM434 482Q434 584 320 584H209V381H320Q378 381 406.0 407.5Q434 434 434 482Z" fill="#FFFFFF"/><path transform="translate(596.0,0)" d="M379 562V415H342Q276 415 242.5 384.0Q209 353 209 276V0H69V554H209V468Q236 512 279.5 537.0Q323 562 379 562Z" fill="#FFFFFF"/><path transform="translate(988.0,0)" d="M34 277Q34 362 71.5 427.0Q109 492 174.0 527.5Q239 563 319 563Q399 563 464.0 527.5Q529 492 566.5 427.0Q604 362 604 277Q604 192 565.5 127.0Q527 62 461.5 26.5Q396 -9 315 -9Q235 -9 171.0 26.5Q107 62 70.5 127.0Q34 192 34 277ZM460 277Q460 356 418.5 398.5Q377 441 317 441Q257 441 216.5 398.5Q176 356 176 277Q176 198 215.5 155.5Q255 113 315 113Q353 113 386.5 131.5Q420 150 440.0 187.0Q460 224 460 277Z" fill="#FFFFFF"/><path transform="translate(1614.0,0)" d="M392 563Q463 563 520.5 528.0Q578 493 611.5 428.5Q645 364 645 279Q645 194 611.5 128.5Q578 63 520.5 27.0Q463 -9 392 -9Q331 -9 284.5 16.0Q238 41 209 79V-264H69V554H209V474Q236 512 283.5 537.5Q331 563 392 563ZM355 440Q317 440 283.5 420.5Q250 401 229.5 364.0Q209 327 209 277Q209 227 229.5 190.0Q250 153 283.5 133.5Q317 114 355 114Q394 114 427.5 134.0Q461 154 481.5 191.0Q502 228 502 279Q502 329 481.5 365.5Q461 402 427.5 421.0Q394 440 355 440Z" fill="#FFFFFF"/><path transform="translate(2280.0,0)" d="M379 562V415H342Q276 415 242.5 384.0Q209 353 209 276V0H69V554H209V468Q236 512 279.5 537.0Q323 562 379 562Z" fill="#FFFFFF"/><path transform="translate(2672.0,0)" d="M232 439V171Q232 143 245.5 130.5Q259 118 291 118H356V0H268Q91 0 91 172V439H25V554H91V691H232V554H356V439Z" fill="#FFFFFF"/></g><g transform="translate(226.49,71.00) scale(0.03300,-0.03300)"><path transform="translate(0.0,0)" d="M494 142H203L153 0H34L283 696H415L664 0H544ZM462 235 349 558 235 235Z" fill="#CFCFCE"/><path transform="translate(709.0,0)" d="M189 740V0H75V740Z" fill="#CFCFCE"/><path transform="translate(985.0,0)" d="M189 740V0H75V740Z" fill="#CFCFCE"/><path transform="translate(1261.0,0)" d="M498 410V314H87V410Z" fill="#CFCFCE"/><path transform="translate(1858.0,0)" d="M60 697Q60 728 81.0 749.0Q102 770 133 770Q163 770 184.0 749.0Q205 728 205 697Q205 666 184.0 645.0Q163 624 133 624Q102 624 81.0 645.0Q60 666 60 697ZM189 551V0H75V551Z" fill="#CFCFCE"/><path transform="translate(2134.0,0)" d="M579 325V0H466V308Q466 382 429.0 421.5Q392 461 328 461Q264 461 226.5 421.5Q189 382 189 308V0H75V551H189V488Q217 522 260.5 541.0Q304 560 353 560Q418 560 469.5 533.0Q521 506 550.0 453.0Q579 400 579 325Z" fill="#CFCFCE"/><path transform="translate(2795.0,0)" d="M498 410V314H87V410Z" fill="#CFCFCE"/><path transform="translate(3392.0,0)" d="M38 276Q38 360 75.0 425.0Q112 490 176.0 525.0Q240 560 319 560Q398 560 462.0 525.0Q526 490 563.0 425.0Q600 360 600 276Q600 192 562.0 127.0Q524 62 458.5 26.5Q393 -9 314 -9Q236 -9 173.0 26.5Q110 62 74.0 126.5Q38 191 38 276ZM483 276Q483 336 460.0 377.5Q437 419 399.0 440.0Q361 461 317 461Q273 461 235.5 440.0Q198 419 176.0 377.5Q154 336 154 276Q154 187 199.5 138.5Q245 90 314 90Q358 90 396.5 111.0Q435 132 459.0 174.0Q483 216 483 276Z" fill="#CFCFCE"/><path transform="translate(4042.0,0)" d="M579 325V0H466V308Q466 382 429.0 421.5Q392 461 328 461Q264 461 226.5 421.5Q189 382 189 308V0H75V551H189V488Q217 522 260.5 541.0Q304 560 353 560Q418 560 469.5 533.0Q521 506 550.0 453.0Q579 400 579 325Z" fill="#CFCFCE"/><path transform="translate(4703.0,0)" d="M576 233H155Q160 167 204.0 127.0Q248 87 312 87Q404 87 442 164H565Q540 88 474.5 39.5Q409 -9 312 -9Q233 -9 170.5 26.5Q108 62 72.5 126.5Q37 191 37 276Q37 361 71.5 425.5Q106 490 168.5 525.0Q231 560 312 560Q390 560 451.0 526.0Q512 492 546.0 430.5Q580 369 580 289Q580 258 576 233ZM461 325Q460 388 416.0 426.0Q372 464 307 464Q248 464 206.0 426.5Q164 389 156 325Z" fill="#CFCFCE"/><path transform="translate(5332.0,0)" d="" fill="#CFCFCE"/><path transform="translate(5604.0,0)" d="M315 282H189V0H75V695H315Q395 695 450.5 667.5Q506 640 533.5 593.0Q561 546 561 488Q561 435 536.0 388.0Q511 341 456.0 311.5Q401 282 315 282ZM444 488Q444 602 315 602H189V375H315Q380 375 412.0 404.5Q444 434 444 488Z" fill="#CFCFCE"/><path transform="translate(6211.0,0)" d="M354 560V442H325Q258 442 223.5 408.0Q189 374 189 290V0H75V551H189V471Q214 513 255.5 536.5Q297 560 354 560Z" fill="#CFCFCE"/><path transform="translate(6607.0,0)" d="M38 276Q38 360 75.0 425.0Q112 490 176.0 525.0Q240 560 319 560Q398 560 462.0 525.0Q526 490 563.0 425.0Q600 360 600 276Q600 192 562.0 127.0Q524 62 458.5 26.5Q393 -9 314 -9Q236 -9 173.0 26.5Q110 62 74.0 126.5Q38 191 38 276ZM483 276Q483 336 460.0 377.5Q437 419 399.0 440.0Q361 461 317 461Q273 461 235.5 440.0Q198 419 176.0 377.5Q154 336 154 276Q154 187 199.5 138.5Q245 90 314 90Q358 90 396.5 111.0Q435 132 459.0 174.0Q483 216 483 276Z" fill="#CFCFCE"/><path transform="translate(7257.0,0)" d="M381 560Q453 560 512.5 524.5Q572 489 606.0 425.0Q640 361 640 278Q640 195 606.0 129.5Q572 64 512.5 27.5Q453 -9 381 -9Q318 -9 269.0 16.5Q220 42 189 80V-262H75V551H189V470Q218 508 268.0 534.0Q318 560 381 560ZM356 461Q313 461 274.5 439.0Q236 417 212.5 375.0Q189 333 189 276Q189 219 212.5 176.5Q236 134 274.5 112.0Q313 90 356 90Q400 90 438.5 112.5Q477 135 500.5 178.0Q524 221 524 278Q524 335 500.5 376.5Q477 418 438.5 439.5Q400 461 356 461Z" fill="#CFCFCE"/><path transform="translate(7947.0,0)" d="M576 233H155Q160 167 204.0 127.0Q248 87 312 87Q404 87 442 164H565Q540 88 474.5 39.5Q409 -9 312 -9Q233 -9 170.5 26.5Q108 62 72.5 126.5Q37 191 37 276Q37 361 71.5 425.5Q106 490 168.5 525.0Q231 560 312 560Q390 560 451.0 526.0Q512 492 546.0 430.5Q580 369 580 289Q580 258 576 233ZM461 325Q460 388 416.0 426.0Q372 464 307 464Q248 464 206.0 426.5Q164 389 156 325Z" fill="#CFCFCE"/><path transform="translate(8576.0,0)" d="M354 560V442H325Q258 442 223.5 408.0Q189 374 189 290V0H75V551H189V471Q214 513 255.5 536.5Q297 560 354 560Z" fill="#CFCFCE"/><path transform="translate(8972.0,0)" d="M208 458V153Q208 122 222.5 108.5Q237 95 272 95H342V0H252Q175 0 134.0 36.0Q93 72 93 153V458H28V551H93V688H208V551H342V458Z" fill="#CFCFCE"/><path transform="translate(9356.0,0)" d="M571 551 233 -259H115L227 9L10 551H137L292 131L453 551Z" fill="#CFCFCE"/><path transform="translate(9950.0,0)" d="" fill="#CFCFCE"/><path transform="translate(10222.0,0)" d="M315 282H189V0H75V695H315Q395 695 450.5 667.5Q506 640 533.5 593.0Q561 546 561 488Q561 435 536.0 388.0Q511 341 456.0 311.5Q401 282 315 282ZM444 488Q444 602 315 602H189V375H315Q380 375 412.0 404.5Q444 434 444 488Z" fill="#CFCFCE"/><path transform="translate(10829.0,0)" d="M189 740V0H75V740Z" fill="#CFCFCE"/><path transform="translate(11105.0,0)" d="M297 560Q362 560 410.5 534.5Q459 509 488 471V551H603V0H488V82Q459 43 409.0 17.0Q359 -9 295 -9Q224 -9 165.0 27.5Q106 64 71.5 129.5Q37 195 37 278Q37 361 71.5 425.0Q106 489 165.5 524.5Q225 560 297 560ZM321 461Q277 461 239.0 439.5Q201 418 177.5 376.5Q154 335 154 278Q154 221 177.5 178.0Q201 135 239.5 112.5Q278 90 321 90Q365 90 403.0 112.0Q441 134 464.5 176.5Q488 219 488 276Q488 333 464.5 375.0Q441 417 403.0 439.0Q365 461 321 461Z" fill="#CFCFCE"/><path transform="translate(11795.0,0)" d="M208 458V153Q208 122 222.5 108.5Q237 95 272 95H342V0H252Q175 0 134.0 36.0Q93 72 93 153V458H28V551H93V688H208V551H342V458Z" fill="#CFCFCE"/><path transform="translate(12179.0,0)" d="M306 458H204V0H89V458H24V551H89V590Q89 685 139.5 728.5Q190 772 298 772V677Q246 677 225.0 657.5Q204 638 204 590V551H306Z" fill="#CFCFCE"/><path transform="translate(12523.0,0)" d="M38 276Q38 360 75.0 425.0Q112 490 176.0 525.0Q240 560 319 560Q398 560 462.0 525.0Q526 490 563.0 425.0Q600 360 600 276Q600 192 562.0 127.0Q524 62 458.5 26.5Q393 -9 314 -9Q236 -9 173.0 26.5Q110 62 74.0 126.5Q38 191 38 276ZM483 276Q483 336 460.0 377.5Q437 419 399.0 440.0Q361 461 317 461Q273 461 235.5 440.0Q198 419 176.0 377.5Q154 336 154 276Q154 187 199.5 138.5Q245 90 314 90Q358 90 396.5 111.0Q435 132 459.0 174.0Q483 216 483 276Z" fill="#CFCFCE"/><path transform="translate(13173.0,0)" d="M354 560V442H325Q258 442 223.5 408.0Q189 374 189 290V0H75V551H189V471Q214 513 255.5 536.5Q297 560 354 560Z" fill="#CFCFCE"/><path transform="translate(13569.0,0)" d="M969 325V0H856V308Q856 382 819.0 421.5Q782 461 718 461Q654 461 616.5 421.5Q579 382 579 308V0H466V308Q466 382 429.0 421.5Q392 461 328 461Q264 461 226.5 421.5Q189 382 189 308V0H75V551H189V488Q217 522 260.0 541.0Q303 560 352 560Q418 560 470.0 532.0Q522 504 550 451Q575 501 628.0 530.5Q681 560 742 560Q807 560 858.5 533.0Q910 506 939.5 453.0Q969 400 969 325Z" fill="#CFCFCE"/></g></svg>